<svg width="1459" height="370" viewBox="0 0 1459 370" fill="none" xmlns="http://www.w3.org/2000/svg">
<path d="M0 10C0 4.47715 4.47715 0 10 0V0C15.5228 0 20 4.47715 20 10V350H0V10Z" fill="#064C54"/>
<path d="M0 350H360C365.523 350 370 354.477 370 360V360C370 365.523 365.523 370 360 370H9.99999C4.47715 370 0 365.523 0 360V350Z" fill="#064C54"/>
<path d="M61 163H81V303C81 308.523 76.5228 313 71 313V313C65.4772 313 61 308.523 61 303V163Z" fill="#064C54"/>
<path d="M305 163H325V303C325 308.523 320.523 313 315 313V313C309.477 313 305 308.523 305 303V163Z" fill="#064C54"/>
<rect x="178.786" y="38.9276" width="20" height="206.463" transform="rotate(-45 178.786 38.9276)" fill="#064C54"/>
<rect x="192.953" y="24.8234" width="20" height="206.409" transform="rotate(45 192.953 24.8234)" fill="#064C54"/>
<path d="M127.363 283.4C125.229 283.4 123.496 282.533 122.163 280.8C120.963 279.067 120.029 276.933 119.363 274.4C118.696 271.733 118.229 269.2 117.963 266.8C117.829 264.267 117.763 262.267 117.763 260.8C117.763 259.467 117.763 258.133 117.763 256.8C117.896 255.467 118.029 254.133 118.163 252.8C118.696 248.667 119.429 244.6 120.363 240.6C121.296 236.467 122.029 232.333 122.563 228.2C122.829 226.067 123.029 224 123.163 222C123.296 220 123.429 217.933 123.563 215.8C123.696 215.133 123.896 214.533 124.163 214C124.429 213.333 124.963 213 125.763 213C127.229 213 128.096 213.667 128.363 215C128.763 216.2 128.963 217.333 128.963 218.4C128.963 223.2 128.496 227.933 127.563 232.6C126.629 237.267 125.696 241.933 124.763 246.6C123.829 251.267 123.363 256 123.363 260.8C123.363 261.333 123.363 262.533 123.363 264.4C123.496 266.133 123.696 268.067 123.963 270.2C124.229 272.2 124.629 273.933 125.163 275.4C125.829 276.867 126.629 277.6 127.563 277.6C128.763 277.6 130.296 276.2 132.163 273.4C134.163 270.6 136.163 267.267 138.163 263.4C140.296 259.4 142.163 255.733 143.763 252.4C145.496 248.933 146.629 246.6 147.163 245.4C149.029 241.267 150.229 237.467 150.763 234C151.429 230.533 151.896 227.333 152.163 224.4C152.429 221.333 153.096 218.333 154.163 215.4C154.829 213.8 155.829 213 157.163 213C159.163 213 160.163 214.2 160.163 216.6C160.163 220.733 159.696 225.733 158.763 231.6C157.829 237.333 157.363 243 157.363 248.6V253C157.363 253.933 157.363 255.4 157.363 257.4C157.363 259.267 157.496 261.267 157.763 263.4C158.163 265.533 158.696 267.333 159.363 268.8C160.163 270.267 161.296 271 162.763 271C164.496 271 166.229 270 167.963 268C169.696 266 171.296 263.667 172.763 261C174.363 258.333 175.696 256 176.763 254C177.829 252 178.629 251 179.163 251C179.963 251 180.363 251.533 180.363 252.6C180.363 253.8 179.696 255.733 178.363 258.4C177.163 260.933 175.563 263.6 173.563 266.4C171.696 269.2 169.696 271.6 167.563 273.6C165.563 275.6 163.829 276.6 162.363 276.6C159.296 276.6 156.963 275.333 155.363 272.8C153.896 270.267 152.829 267.133 152.163 263.4C151.629 259.667 151.363 256.067 151.363 252.6C151.363 249 151.363 246.2 151.363 244.2C150.829 245.8 149.963 248.2 148.763 251.4C147.563 254.467 146.163 257.867 144.563 261.6C142.963 265.2 141.229 268.667 139.363 272C137.496 275.333 135.496 278.067 133.363 280.2C131.363 282.333 129.363 283.4 127.363 283.4ZM199.142 285.4C197.942 285.4 197.142 285 196.742 284.2C196.476 283.267 196.342 282.333 196.342 281.4C196.342 279.133 196.476 276.867 196.742 274.6C197.142 272.2 197.342 269.867 197.342 267.6C197.342 266.133 197.142 263.8 196.742 260.6C196.342 257.4 195.742 253.8 194.942 249.8C194.276 245.667 193.476 241.667 192.542 237.8C191.609 233.8 190.542 230.4 189.342 227.6C188.276 224.667 187.209 222.8 186.142 222C185.609 221.6 185.142 221.2 184.742 220.8C184.342 220.267 184.142 219.667 184.142 219C184.142 217.667 184.609 216.867 185.542 216.6C186.476 216.333 187.409 216.2 188.342 216.2C190.076 216.2 191.676 217.6 193.142 220.4C194.609 223.2 195.942 226.733 197.142 231C198.342 235.267 199.342 239.667 200.142 244.2C200.942 248.733 201.609 252.8 202.142 256.4C202.676 259.867 203.009 262.267 203.142 263.6C203.809 262.133 205.009 259.533 206.742 255.8C208.476 251.933 210.476 247.6 212.742 242.8C215.142 238 217.542 233.4 219.942 229C222.342 224.467 224.476 220.733 226.342 217.8C228.342 214.867 229.809 213.4 230.742 213.4C231.942 213.4 232.542 214.067 232.542 215.4L219.542 239.8C216.209 247 213.142 254.133 210.342 261.2C207.542 268.267 204.809 275.533 202.142 283C201.876 283.667 201.542 284.267 201.142 284.8C200.742 285.2 200.076 285.4 199.142 285.4ZM250.716 288C247.116 288 244.316 286.4 242.316 283.2C240.449 280 239.182 276.133 238.516 271.6C237.849 266.933 237.516 262.6 237.516 258.6C237.516 256.733 237.516 255.067 237.516 253.6C237.649 252 237.782 250.667 237.916 249.6H237.316C235.716 249.6 234.916 249 234.916 247.8C235.182 247.133 235.649 246.6 236.316 246.2C237.116 245.667 237.849 245.333 238.516 245.2C239.182 239.333 240.449 233.333 242.316 227.2C244.182 221.067 246.716 215.533 249.916 210.6V209.4C249.916 208.067 250.716 207.267 252.316 207C252.982 206.333 253.649 205.6 254.316 204.8C255.116 203.867 255.982 203.4 256.916 203.4C257.982 203.4 258.782 203.867 259.316 204.8C259.982 205.6 260.049 206.467 259.516 207.4C262.049 207.933 264.316 209 266.316 210.6C268.449 212.067 269.516 214.267 269.516 217.2C269.516 221.067 268.049 225.067 265.116 229.2C262.316 233.2 258.916 236.867 254.916 240.2C251.049 243.4 247.516 245.8 244.316 247.4C243.916 250.6 243.649 253.867 243.516 257.2C243.516 260.4 243.516 263.6 243.516 266.8C243.516 268.4 243.582 270.4 243.716 272.8C243.982 275.2 244.582 277.333 245.516 279.2C246.582 281.067 248.316 282 250.716 282C253.249 282 255.716 280.867 258.116 278.6C260.649 276.333 263.049 273.467 265.316 270C267.716 266.4 269.916 262.667 271.916 258.8C273.916 254.933 275.649 251.267 277.116 247.8C278.582 244.333 279.649 241.667 280.316 239.8C280.582 239.133 280.916 238.533 281.316 238C281.716 237.333 282.316 237 283.116 237C284.182 237 284.716 237.667 284.716 239C284.716 241.133 283.982 244.2 282.516 248.2C281.049 252.067 279.049 256.267 276.516 260.8C274.116 265.333 271.382 269.667 268.316 273.8C265.382 277.933 262.382 281.333 259.316 284C256.249 286.667 253.382 288 250.716 288ZM245.316 241.2C247.849 239.6 250.382 237.6 252.916 235.2C255.449 232.8 257.582 230.067 259.316 227C261.049 223.933 261.916 220.867 261.916 217.8C261.916 216.2 261.116 215.067 259.516 214.4C257.916 213.6 256.516 213.133 255.316 213C252.782 217.133 250.649 221.667 248.916 226.6C247.316 231.533 246.116 236.4 245.316 241.2Z" fill="#064C54"/>
<circle cx="193" cy="137" r="15" fill="#FF6F61"/>
<path d="M515.657 262.567L515.779 262.689C518.099 262.812 520.174 263.788 521.883 265.497C523.714 267.206 524.69 269.281 524.69 271.845C524.69 274.53 523.714 276.728 521.883 278.437C520.052 280.268 517.977 281 515.535 281H514.925C497.713 281 482.82 275.019 470.247 262.689C457.796 250.36 450.96 235.468 450.96 218.012V117.304C450.96 114.74 451.814 112.543 453.646 110.712C455.721 108.759 457.918 108.026 460.237 108.026C462.557 108.026 464.754 108.881 466.707 110.712C468.538 112.787 469.393 114.984 469.393 117.304V216.669C469.393 222.895 470.491 228.632 472.688 234.003C474.886 239.374 478.06 244.257 482.088 248.651L483.797 250.116C484.407 250.604 484.896 251.093 485.262 251.581C485.872 252.313 486.482 252.802 487.093 253.168C487.215 253.29 487.337 253.412 487.337 253.534C487.459 253.656 487.825 253.9 488.436 254.267C488.802 254.633 489.168 254.877 489.534 255.121L490.389 255.609L492.22 256.708C492.83 257.074 493.318 257.44 493.685 257.807C494.783 258.173 495.882 258.539 496.98 258.905C498.079 259.271 499.178 259.638 500.276 260.004L504.549 260.98C505.892 261.347 507.234 261.713 508.577 262.079L515.657 262.567ZM646.204 156.366L646.326 156.122C649.134 156.122 651.209 157.099 652.796 158.93C654.383 160.883 655.359 162.836 655.359 165.155V229.853C655.359 244.135 650.11 255.976 640.101 265.741C629.847 275.629 617.762 280.756 603.602 280.756C589.441 280.756 577.356 275.873 567.225 266.107C562.22 261.225 558.436 255.854 555.872 249.994C553.309 244.135 551.844 237.665 551.844 230.707V165.155C551.844 162.714 552.698 160.639 554.529 158.93C556.36 157.099 558.558 156.122 560.999 156.122C563.807 156.122 566.004 157.099 567.713 159.052C567.835 159.418 567.957 159.662 567.957 159.784C568.567 160.639 569.056 161.493 569.3 162.47C569.544 163.446 569.666 164.423 569.666 165.399V230.097C569.666 239.008 572.962 246.698 579.676 253.168C586.39 259.638 594.324 262.934 603.479 262.934C608.118 262.934 612.391 262.079 616.297 260.492C620.203 258.905 623.865 256.464 627.405 253.168C633.875 246.82 637.171 239.13 637.171 230.097V165.399C637.171 163.08 638.025 161.005 639.856 159.174C641.932 157.221 644.007 156.366 646.204 156.366ZM779.681 156.732L779.192 157.587C780.291 158.075 781.268 158.686 782.122 159.54C782.977 160.395 783.587 161.005 783.953 161.493C784.441 162.104 784.808 162.836 785.052 163.568C785.296 164.301 785.418 165.033 785.418 165.766C785.418 166.254 785.296 166.864 785.174 167.597C785.052 168.329 784.808 168.939 784.563 169.428L763.445 223.017L742.205 276.728C741.473 278.559 740.252 279.901 738.909 280.878C737.566 281.732 735.857 282.221 733.782 282.221C731.951 282.221 730.242 281.732 728.777 280.878C727.312 279.901 726.214 278.559 725.481 276.85L714.007 249.872L702.532 222.772L691.18 195.673L679.705 168.451C679.461 167.353 679.339 166.376 679.339 165.399C679.339 164.789 679.461 164.179 679.583 163.69L680.071 161.859C680.438 160.883 681.048 160.028 681.78 159.174C682.513 158.319 683.611 157.587 684.954 156.977C686.053 156.488 687.151 156.244 688.372 156.244C688.982 156.244 689.593 156.366 690.203 156.488C690.813 156.61 691.546 156.854 692.278 157.099C693.133 157.587 693.987 158.197 694.72 158.93C695.452 159.662 695.94 160.639 696.429 161.737L733.416 248.773L741.839 227.777L750.14 206.781L758.929 184.442L767.84 161.981L767.718 162.104C768.084 161.249 768.694 160.272 769.549 159.296C770.403 158.319 771.38 157.587 772.479 156.977H772.356C772.967 156.61 773.577 156.366 774.188 156.244C774.798 156.122 775.53 156.122 776.385 156.122C776.995 156.122 777.605 156.244 778.216 156.366C778.826 156.488 779.314 156.61 779.681 156.732ZM915.232 208.734L915.354 208.49C914.256 204.218 912.547 200.189 910.228 196.405C907.908 192.621 905.345 189.081 902.171 186.151C898.143 182.367 893.382 179.682 888.255 177.729C883.128 175.775 877.757 174.799 872.142 174.799C861.033 174.799 851.146 178.705 842.356 186.518V186.396C835.643 192.621 831.248 200.067 829.173 208.734H915.232ZM934.764 217.523L934.52 217.157C934.52 217.523 934.52 217.89 934.52 218.256C934.52 218.622 934.397 219.11 934.153 219.721L934.275 219.599C933.055 223.993 930.125 226.19 925.608 226.19H828.807C829.539 230.829 831.004 235.102 833.079 239.13C835.154 243.158 838.206 246.698 841.746 250.238C850.291 258.417 860.301 262.689 872.264 262.689C876.048 262.689 879.588 262.201 882.884 261.347C886.18 260.492 889.476 259.271 892.771 257.685H892.649C895.701 256.098 898.631 254.145 901.316 251.825C904.002 249.506 906.443 246.82 908.519 243.769C909.861 241.938 911.937 240.717 914.744 240.106H916.087C917.796 240.106 919.505 240.595 921.092 241.571C923.289 242.914 924.632 244.867 925.12 247.431C925.242 247.797 925.364 248.041 925.364 248.285C925.364 248.529 925.364 248.896 925.364 249.262C925.364 251.093 924.754 252.802 923.655 254.389C920.848 258.417 917.552 262.079 913.768 265.375C909.983 268.671 905.833 271.479 901.438 273.798C892.283 278.559 882.64 281 872.508 281C855.54 281 840.647 275.141 828.318 262.689C815.989 250.238 810.13 235.468 810.13 218.622V216.791C810.13 200.067 816.844 185.541 829.051 173.7C841.136 161.859 855.784 156.122 872.508 156.122C889.476 156.122 904.002 161.859 916.087 173.7C922.068 179.56 926.585 186.273 929.759 193.476C932.933 200.678 934.764 208.612 934.764 217.279V217.523ZM1014.04 156.61H1013.8C1027.71 156.61 1039.68 161.615 1049.69 171.625C1059.57 181.513 1064.58 193.476 1064.58 207.392V272.089C1064.58 273.432 1064.46 274.652 1064.09 275.629C1063.72 276.605 1063.11 277.46 1062.14 278.314C1060.55 280.146 1058.35 281 1055.54 281C1052.74 281 1050.54 280.023 1048.95 278.192C1047.37 276.361 1046.51 274.286 1046.51 272.089V207.392C1046.51 198.236 1043.34 190.424 1036.87 184.076C1030.4 177.729 1022.71 174.555 1013.8 174.555C1004.89 174.555 997.195 177.729 990.726 184.076C984.378 190.424 981.204 198.236 981.204 207.392V272.089C981.204 274.774 980.35 276.85 978.641 278.314C976.932 280.146 974.734 281 972.049 281C970.828 281 969.729 280.878 968.753 280.512C967.776 280.146 966.8 279.413 965.945 278.314C964.236 276.972 963.382 274.896 963.382 272.089V206.659C963.382 192.987 968.509 181.269 978.519 171.381C988.406 161.493 1000.25 156.61 1014.04 156.61ZM1155.57 263.91V264.032C1167.9 264.032 1178.4 259.638 1187.07 250.971C1195.74 242.304 1200.01 231.806 1200.01 219.477C1200.01 207.025 1195.61 196.649 1187.07 187.86C1178.52 179.193 1168.15 174.799 1155.57 174.799C1143.25 174.799 1132.75 179.193 1124.08 187.86C1115.41 196.527 1111.02 207.025 1111.02 219.354C1111.02 231.684 1115.41 242.182 1124.08 250.849C1132.99 259.638 1143.49 263.91 1155.57 263.91ZM1218.44 219.477V219.721C1218.44 236.933 1212.21 251.703 1199.89 264.032C1187.68 276.361 1172.91 282.343 1155.57 282.343C1138.36 282.343 1123.71 276.361 1111.38 264.032C1099.06 251.703 1092.83 237.055 1092.83 219.721C1092.83 202.387 1099.06 187.738 1111.38 175.409C1123.71 163.08 1138.36 156.854 1155.57 156.854C1167.54 156.854 1178.4 159.906 1188.29 165.888C1190.61 167.23 1192.68 168.695 1194.64 170.282C1196.59 171.869 1198.42 173.456 1200.13 175.165V116.571C1200.13 114.252 1201.11 112.055 1202.94 109.979C1204.77 108.271 1206.84 107.416 1209.29 107.416C1211.85 107.416 1214.05 108.271 1215.88 109.979C1217.59 111.688 1218.44 113.886 1218.44 116.449V219.477ZM1310.54 262.934C1322.86 262.934 1333.36 258.661 1341.91 249.994C1350.57 241.327 1354.85 230.951 1354.85 218.866C1354.85 206.781 1350.57 196.283 1341.91 187.372C1333.36 178.827 1322.86 174.555 1310.54 174.555C1298.33 174.555 1287.83 178.705 1279.29 187.372C1270.5 196.283 1266.35 206.903 1266.35 218.744C1266.35 230.707 1270.5 241.083 1279.29 249.994C1287.95 258.661 1298.33 262.934 1310.54 262.934ZM1372.91 272.211L1372.67 271.967C1372.67 274.53 1371.81 276.605 1370.11 278.314C1368.27 280.146 1366.2 281 1363.76 281C1361.07 281 1358.88 280.146 1357.04 278.559C1355.46 276.728 1354.6 274.53 1354.6 271.967V262.567C1352.89 264.154 1350.94 265.863 1348.74 267.572C1346.55 269.281 1344.59 270.624 1342.88 271.723C1338 274.774 1332.87 277.094 1327.5 278.681C1322.13 280.268 1316.52 281 1310.54 281C1293.32 281 1278.67 274.896 1266.47 262.689C1254.26 250.36 1248.28 235.712 1248.28 218.744C1248.28 201.776 1254.26 187.128 1266.47 174.799C1278.67 162.47 1293.32 156.488 1310.54 156.488C1327.75 156.488 1342.64 162.47 1354.72 174.799C1366.93 187.128 1372.91 201.776 1372.91 218.744V272.211Z" fill="#064C54"/>
</svg>
