<svg width="370" height="370" viewBox="0 0 370 370" fill="none" xmlns="http://www.w3.org/2000/svg">
<path d="M0 10C0 4.47715 4.47715 0 10 0V0C15.5228 0 20 4.47715 20 10V350H0V10Z" fill="#064C54"/>
<path d="M0 350H360C365.523 350 370 354.477 370 360V360C370 365.523 365.523 370 360 370H9.99999C4.47715 370 0 365.523 0 360V350Z" fill="#064C54"/>
<path d="M61 163H81V303C81 308.523 76.5228 313 71 313V313C65.4772 313 61 308.523 61 303V163Z" fill="#064C54"/>
<path d="M305 163H325V303C325 308.523 320.523 313 315 313V313C309.477 313 305 308.523 305 303V163Z" fill="#064C54"/>
<rect x="178.786" y="38.9276" width="20" height="206.463" transform="rotate(-45 178.786 38.9276)" fill="#064C54"/>
<rect x="192.953" y="24.8234" width="20" height="206.409" transform="rotate(45 192.953 24.8234)" fill="#064C54"/>
<path d="M127.363 283.4C125.229 283.4 123.496 282.533 122.163 280.8C120.963 279.067 120.029 276.933 119.363 274.4C118.696 271.733 118.229 269.2 117.963 266.8C117.829 264.267 117.763 262.267 117.763 260.8C117.763 259.467 117.763 258.133 117.763 256.8C117.896 255.467 118.029 254.133 118.163 252.8C118.696 248.667 119.429 244.6 120.363 240.6C121.296 236.467 122.029 232.333 122.563 228.2C122.829 226.067 123.029 224 123.163 222C123.296 220 123.429 217.933 123.563 215.8C123.696 215.133 123.896 214.533 124.163 214C124.429 213.333 124.963 213 125.763 213C127.229 213 128.096 213.667 128.363 215C128.763 216.2 128.963 217.333 128.963 218.4C128.963 223.2 128.496 227.933 127.563 232.6C126.629 237.267 125.696 241.933 124.763 246.6C123.829 251.267 123.363 256 123.363 260.8C123.363 261.333 123.363 262.533 123.363 264.4C123.496 266.133 123.696 268.067 123.963 270.2C124.229 272.2 124.629 273.933 125.163 275.4C125.829 276.867 126.629 277.6 127.563 277.6C128.763 277.6 130.296 276.2 132.163 273.4C134.163 270.6 136.163 267.267 138.163 263.4C140.296 259.4 142.163 255.733 143.763 252.4C145.496 248.933 146.629 246.6 147.163 245.4C149.029 241.267 150.229 237.467 150.763 234C151.429 230.533 151.896 227.333 152.163 224.4C152.429 221.333 153.096 218.333 154.163 215.4C154.829 213.8 155.829 213 157.163 213C159.163 213 160.163 214.2 160.163 216.6C160.163 220.733 159.696 225.733 158.763 231.6C157.829 237.333 157.363 243 157.363 248.6V253C157.363 253.933 157.363 255.4 157.363 257.4C157.363 259.267 157.496 261.267 157.763 263.4C158.163 265.533 158.696 267.333 159.363 268.8C160.163 270.267 161.296 271 162.763 271C164.496 271 166.229 270 167.963 268C169.696 266 171.296 263.667 172.763 261C174.363 258.333 175.696 256 176.763 254C177.829 252 178.629 251 179.163 251C179.963 251 180.363 251.533 180.363 252.6C180.363 253.8 179.696 255.733 178.363 258.4C177.163 260.933 175.563 263.6 173.563 266.4C171.696 269.2 169.696 271.6 167.563 273.6C165.563 275.6 163.829 276.6 162.363 276.6C159.296 276.6 156.963 275.333 155.363 272.8C153.896 270.267 152.829 267.133 152.163 263.4C151.629 259.667 151.363 256.067 151.363 252.6C151.363 249 151.363 246.2 151.363 244.2C150.829 245.8 149.963 248.2 148.763 251.4C147.563 254.467 146.163 257.867 144.563 261.6C142.963 265.2 141.229 268.667 139.363 272C137.496 275.333 135.496 278.067 133.363 280.2C131.363 282.333 129.363 283.4 127.363 283.4ZM199.142 285.4C197.942 285.4 197.142 285 196.742 284.2C196.476 283.267 196.342 282.333 196.342 281.4C196.342 279.133 196.476 276.867 196.742 274.6C197.142 272.2 197.342 269.867 197.342 267.6C197.342 266.133 197.142 263.8 196.742 260.6C196.342 257.4 195.742 253.8 194.942 249.8C194.276 245.667 193.476 241.667 192.542 237.8C191.609 233.8 190.542 230.4 189.342 227.6C188.276 224.667 187.209 222.8 186.142 222C185.609 221.6 185.142 221.2 184.742 220.8C184.342 220.267 184.142 219.667 184.142 219C184.142 217.667 184.609 216.867 185.542 216.6C186.476 216.333 187.409 216.2 188.342 216.2C190.076 216.2 191.676 217.6 193.142 220.4C194.609 223.2 195.942 226.733 197.142 231C198.342 235.267 199.342 239.667 200.142 244.2C200.942 248.733 201.609 252.8 202.142 256.4C202.676 259.867 203.009 262.267 203.142 263.6C203.809 262.133 205.009 259.533 206.742 255.8C208.476 251.933 210.476 247.6 212.742 242.8C215.142 238 217.542 233.4 219.942 229C222.342 224.467 224.476 220.733 226.342 217.8C228.342 214.867 229.809 213.4 230.742 213.4C231.942 213.4 232.542 214.067 232.542 215.4L219.542 239.8C216.209 247 213.142 254.133 210.342 261.2C207.542 268.267 204.809 275.533 202.142 283C201.876 283.667 201.542 284.267 201.142 284.8C200.742 285.2 200.076 285.4 199.142 285.4ZM250.716 288C247.116 288 244.316 286.4 242.316 283.2C240.449 280 239.182 276.133 238.516 271.6C237.849 266.933 237.516 262.6 237.516 258.6C237.516 256.733 237.516 255.067 237.516 253.6C237.649 252 237.782 250.667 237.916 249.6H237.316C235.716 249.6 234.916 249 234.916 247.8C235.182 247.133 235.649 246.6 236.316 246.2C237.116 245.667 237.849 245.333 238.516 245.2C239.182 239.333 240.449 233.333 242.316 227.2C244.182 221.067 246.716 215.533 249.916 210.6V209.4C249.916 208.067 250.716 207.267 252.316 207C252.982 206.333 253.649 205.6 254.316 204.8C255.116 203.867 255.982 203.4 256.916 203.4C257.982 203.4 258.782 203.867 259.316 204.8C259.982 205.6 260.049 206.467 259.516 207.4C262.049 207.933 264.316 209 266.316 210.6C268.449 212.067 269.516 214.267 269.516 217.2C269.516 221.067 268.049 225.067 265.116 229.2C262.316 233.2 258.916 236.867 254.916 240.2C251.049 243.4 247.516 245.8 244.316 247.4C243.916 250.6 243.649 253.867 243.516 257.2C243.516 260.4 243.516 263.6 243.516 266.8C243.516 268.4 243.582 270.4 243.716 272.8C243.982 275.2 244.582 277.333 245.516 279.2C246.582 281.067 248.316 282 250.716 282C253.249 282 255.716 280.867 258.116 278.6C260.649 276.333 263.049 273.467 265.316 270C267.716 266.4 269.916 262.667 271.916 258.8C273.916 254.933 275.649 251.267 277.116 247.8C278.582 244.333 279.649 241.667 280.316 239.8C280.582 239.133 280.916 238.533 281.316 238C281.716 237.333 282.316 237 283.116 237C284.182 237 284.716 237.667 284.716 239C284.716 241.133 283.982 244.2 282.516 248.2C281.049 252.067 279.049 256.267 276.516 260.8C274.116 265.333 271.382 269.667 268.316 273.8C265.382 277.933 262.382 281.333 259.316 284C256.249 286.667 253.382 288 250.716 288ZM245.316 241.2C247.849 239.6 250.382 237.6 252.916 235.2C255.449 232.8 257.582 230.067 259.316 227C261.049 223.933 261.916 220.867 261.916 217.8C261.916 216.2 261.116 215.067 259.516 214.4C257.916 213.6 256.516 213.133 255.316 213C252.782 217.133 250.649 221.667 248.916 226.6C247.316 231.533 246.116 236.4 245.316 241.2Z" fill="#064C54"/>
<circle cx="193" cy="137" r="15" fill="#FF6F61"/>
</svg>
